<svg width="68" height="95" viewBox="0 0 68 95" fill="none" xmlns="http://www.w3.org/2000/svg">
<g clip-path="url(#clip0_33_43)">
<path d="M67.0754 90.4482C67.0754 92.9272 65.069 94.942 62.5899 94.942L4.58501 95.0083C2.61171 95.0083 0.9369 93.7398 0.331646 91.9737C0.174114 91.5177 0.0912027 91.0368 0.0912027 90.5311L0 6.88167C0 4.40261 2.00646 2.38786 4.48551 2.38786L57.7479 2.32982L62.4904 2.32153C64.9695 2.32153 66.9842 4.32799 66.9842 6.80704L67.0754 90.4482Z" fill="url(#paint0_linear_33_43)"/>
<path d="M61.0643 89.9673L6.1023 90.0254C4.76742 90.0254 3.68957 88.9475 3.68957 87.6126L3.60666 9.76703C3.60666 8.43215 4.68451 7.3543 6.01938 7.3543L60.9731 7.29626C62.308 7.29626 63.3859 8.37411 63.3859 9.70899L63.4688 87.5546C63.4771 88.8812 62.3992 89.9673 61.0643 89.9673Z" fill="white"/>
<path d="M53.3453 13.7136L13.2575 13.7633C11.9309 13.7633 10.8448 12.6855 10.8448 11.3589L10.8365 4.67623C10.8365 3.34964 11.9144 2.2635 13.241 2.2635L53.337 2.22205C54.6635 2.22205 55.7497 3.2999 55.7497 4.62648L55.758 11.3091C55.7497 12.6357 54.6718 13.7136 53.3453 13.7136ZM13.241 3.49059C12.5942 3.49059 12.0636 4.02123 12.0636 4.66793L12.0719 11.3506C12.0719 11.9973 12.6025 12.5279 13.2492 12.5279L53.3453 12.4865C53.992 12.4865 54.5226 11.9559 54.5226 11.3091L54.5143 4.62648C54.5143 3.97977 53.9837 3.44914 53.337 3.44914L13.241 3.49059Z" fill="url(#paint1_linear_33_43)"/>
<path d="M52.2094 5.11564L14.7748 5.1571C14.3603 5.1571 14.0286 4.82545 14.0286 4.41089V0.787659C14.0286 0.373102 14.3603 0.0414557 14.7748 0.0414557L52.2011 0C52.6157 0 52.9473 0.331646 52.9473 0.746203V4.36944C52.9556 4.78399 52.624 5.11564 52.2094 5.11564Z" fill="url(#paint2_linear_33_43)"/>
<path d="M14.808 5.15714L52.1762 5.11568C52.6073 5.11568 52.9556 4.76746 52.9556 4.33632V2.56201L14.0203 2.60347V4.37777C14.0203 4.80891 14.3768 5.15714 14.808 5.15714Z" fill="#58D6F4"/>
<path d="M27.9412 81.2118L24.7076 61.6447L22.0876 70.1597L14.5924 70.168C14.1364 70.168 13.7716 69.8031 13.7716 69.3471C13.7716 68.8911 14.1364 68.5263 14.5924 68.5263L20.8854 68.518L25.2051 54.4977L28.4387 74.1145L32.634 60.6414L34.8643 67.0256L39.8887 54.8459L44.7722 74.1643L46.6129 68.0205L52.0021 68.0123C52.4581 68.0123 52.8229 68.3771 52.8229 68.8331C52.8229 69.2891 52.4581 69.6539 52.0021 69.6539L47.8317 69.6622L44.6396 80.3163L39.5156 60.0528L34.7316 71.6355L32.7169 65.8731L27.9412 81.2118Z" fill="#58D6F4"/>
<path d="M22.3861 43.4871L11.848 43.4954C10.1483 43.4954 8.75541 42.1107 8.75541 40.411L8.73883 25.6777C8.73883 23.978 10.1235 22.5851 11.8231 22.5851L22.3612 22.5768C24.0609 22.5768 25.4538 23.9614 25.4538 25.6611L25.4704 40.3945C25.4704 42.0942 24.0858 43.4788 22.3861 43.4871ZM11.8148 23.4805C10.6043 23.4805 9.62598 24.4672 9.62598 25.6777L9.64257 40.411C9.64257 41.6216 10.6292 42.5999 11.8397 42.5999L22.3778 42.5916C23.5883 42.5916 24.5666 41.605 24.5666 40.3945L24.5501 25.6611C24.5501 24.4506 23.5634 23.4722 22.3529 23.4722L11.8148 23.4805Z" fill="url(#paint3_linear_33_43)"/>
<path d="M17.1046 40.6598C22.0876 40.6515 23.6381 37.7745 23.6381 37.7745C23.4142 37.4926 23.1323 37.2439 22.7509 36.9951C21.4409 36.1411 20.3879 35.7763 19.9485 35.4115C19.5008 35.055 19.252 34.5327 19.252 34.5327L18.9784 34.6985C18.9784 34.6985 18.8126 34.1264 18.9038 33.2558C18.9038 33.2558 19.2935 33.1563 19.5837 31.838C20.048 31.9292 20.5952 30.7519 20.3382 30.3207C20.1724 30.0388 19.9734 30.0637 19.8324 30.1301C19.9734 29.5414 20.6118 26.283 17.0963 26.283C13.5809 26.283 14.2193 29.5414 14.3686 30.1301C14.2276 30.0637 14.0286 30.0388 13.8628 30.3207C13.6058 30.7519 14.1613 31.9292 14.6256 31.838C14.9158 33.1563 15.3137 33.2475 15.3137 33.2475C15.4132 34.1098 15.2391 34.6902 15.2391 34.6902L14.9655 34.5244C14.9655 34.5244 14.7168 35.0384 14.2691 35.4032C13.8213 35.768 12.7767 36.1411 11.4667 36.9951C11.0853 37.2439 10.7951 37.4926 10.5795 37.7745C10.5712 37.7911 12.1299 40.6681 17.1046 40.6598Z" fill="url(#paint4_linear_33_43)"/>
<path d="M49.921 27.2779L29.6326 27.3028C29.2512 27.3028 28.9444 26.996 28.9444 26.6146V26.4986C28.9444 26.1172 29.2512 25.8104 29.6326 25.8104L49.921 25.7855C50.3024 25.7855 50.6092 26.0923 50.6092 26.4737V26.5898C50.6092 26.9712 50.2941 27.2779 49.921 27.2779Z" fill="url(#paint5_linear_33_43)"/>
<path d="M42.459 31.1416L29.6326 31.1582C29.2512 31.1582 28.9444 30.8514 28.9444 30.47V30.3539C28.9444 29.9725 29.2512 29.6658 29.6326 29.6658L42.459 29.6492C42.8404 29.6492 43.1471 29.9559 43.1471 30.3373V30.4534C43.1471 30.8348 42.8404 31.1416 42.459 31.1416Z" fill="url(#paint6_linear_33_43)"/>
<path opacity="0.6" d="M56.9187 35.7348L29.6409 35.768C29.2595 35.768 28.9527 35.4612 28.9527 35.0798V34.9638C28.9527 34.5824 29.2595 34.2756 29.6409 34.2756L56.9187 34.2424C57.3001 34.2424 57.6069 34.5492 57.6069 34.9306V35.0467C57.5986 35.4281 57.2918 35.7348 56.9187 35.7348Z" fill="url(#paint7_linear_33_43)"/>
<path opacity="0.6" d="M56.3301 48.6441L10.8282 48.6939C10.4386 48.6939 10.1152 48.3788 10.1152 47.9808V47.9145C10.1152 47.5248 10.4303 47.2015 10.8282 47.2015L56.3301 47.1517C56.7198 47.1517 57.0431 47.4668 57.0431 47.8648V47.9311C57.0431 48.3291 56.7198 48.6441 56.3301 48.6441Z" fill="url(#paint8_linear_33_43)"/>
<path opacity="0.6" d="M56.9187 40.2452L29.6409 40.2784C29.2595 40.2784 28.9527 39.9716 28.9527 39.5902V39.4741C28.9527 39.0927 29.2595 38.786 29.6409 38.786L56.9187 38.7528C57.3001 38.7528 57.6069 39.0596 57.6069 39.441V39.5571C57.6069 39.9384 57.3001 40.2452 56.9187 40.2452Z" fill="url(#paint9_linear_33_43)"/>
</g>
<defs>
<linearGradient id="paint0_linear_33_43" x1="-9.28868" y1="34.748" x2="76.3641" y2="62.5782" gradientUnits="userSpaceOnUse">
<stop stop-color="#6CBCFC"/>
<stop offset="0.1713" stop-color="#5EABFC"/>
<stop offset="0.4084" stop-color="#509AFC"/>
<stop offset="0.6698" stop-color="#4890FC"/>
<stop offset="1" stop-color="#458DFC"/>
</linearGradient>
<linearGradient id="paint1_linear_33_43" x1="-5.225" y1="-21.375" x2="55.7514" y2="7.98973" gradientUnits="userSpaceOnUse">
<stop stop-color="#CFE9FF"/>
<stop offset="1" stop-color="#A1D6FB"/>
</linearGradient>
<linearGradient id="paint2_linear_33_43" x1="14.0191" y1="2.57952" x2="52.9549" y2="2.57952" gradientUnits="userSpaceOnUse">
<stop stop-color="#B0F4FF"/>
<stop offset="1" stop-color="#69DCFC"/>
</linearGradient>
<linearGradient id="paint3_linear_33_43" x1="14.1349" y1="29.2075" x2="23.9155" y2="41.8334" gradientUnits="userSpaceOnUse">
<stop stop-color="#6CBCFC"/>
<stop offset="1" stop-color="#458DFC"/>
</linearGradient>
<linearGradient id="paint4_linear_33_43" x1="13.0741" y1="30.0293" x2="22.8548" y2="42.6553" gradientUnits="userSpaceOnUse">
<stop stop-color="#B0F4FF"/>
<stop offset="0.0994384" stop-color="#A1EFFE"/>
<stop offset="0.2994" stop-color="#88E7FD"/>
<stop offset="0.5095" stop-color="#77E1FD"/>
<stop offset="0.7344" stop-color="#6CDDFC"/>
<stop offset="1" stop-color="#69DCFC"/>
</linearGradient>
<linearGradient id="paint5_linear_33_43" x1="28.9456" y1="26.551" x2="50.6048" y2="26.564" gradientUnits="userSpaceOnUse">
<stop stop-color="#6CBCFC"/>
<stop offset="1" stop-color="#458DFC"/>
</linearGradient>
<linearGradient id="paint6_linear_33_43" x1="28.9495" y1="30.4037" x2="43.1463" y2="30.4037" gradientUnits="userSpaceOnUse">
<stop stop-color="#6CBCFC"/>
<stop offset="1" stop-color="#458DFC"/>
</linearGradient>
<linearGradient id="paint7_linear_33_43" x1="28.9542" y1="35.0098" x2="57.6023" y2="35.0098" gradientUnits="userSpaceOnUse">
<stop stop-color="#6CBCFC"/>
<stop offset="1" stop-color="#458DFC"/>
</linearGradient>
<linearGradient id="paint8_linear_33_43" x1="10.1148" y1="47.9272" x2="57.0408" y2="47.9272" gradientUnits="userSpaceOnUse">
<stop stop-color="#6CBCFC"/>
<stop offset="1" stop-color="#458DFC"/>
</linearGradient>
<linearGradient id="paint9_linear_33_43" x1="28.9588" y1="39.5191" x2="57.6069" y2="39.5191" gradientUnits="userSpaceOnUse">
<stop stop-color="#6CBCFC"/>
<stop offset="1" stop-color="#458DFC"/>
</linearGradient>
<clipPath id="clip0_33_43">
<rect width="67.0754" height="95" fill="white"/>
</clipPath>
</defs>
</svg>
